<?xml version="1.0" encoding="UTF-8" standalone="no"?>
<!DOCTYPE svg PUBLIC "-//W3C//DTD SVG 1.1//EN" "http://www.w3.org/Graphics/SVG/1.1/DTD/svg11.dtd">
<svg width="100%" height="100%" viewBox="0 0 3711 2052" version="1.1" xmlns="http://www.w3.org/2000/svg" xmlns:xlink="http://www.w3.org/1999/xlink" xml:space="preserve" xmlns:serif="http://www.serif.com/" style="fill-rule:evenodd;clip-rule:evenodd;stroke-linejoin:round;stroke-miterlimit:2;">
    <g transform="matrix(1,0,0,1,0,-1227)">
        <g id="Bodies" transform="matrix(1,0,0,1,655.108,-0.95659)">
            <rect x="-655.108" y="1227.96" width="3710.32" height="2051.4" style="fill:none;"/>
            <g transform="matrix(1.2077,0,0,1.2077,-354.71,-440.731)">
                <path d="M2434.61,2924.89C2430.3,2917.03 2427.87,2907.05 2428.13,2900.77C2428.57,2890.47 2428.59,2869.03 2428.59,2869.03C2428.59,2869.03 2392.54,2861.98 2390.67,2840.09C2388.5,2814.61 2387.57,2756.34 2415.7,2716.47C2436.9,2686.42 2496.73,2641.78 2540.33,2637.32C2604.31,2630.78 2674.1,2656.02 2690.21,2682.9C2700.97,2700.87 2711.21,2721.44 2712.26,2742.24C2713.36,2764.02 2719.75,2786.27 2717.38,2809.22C2716.25,2820.1 2715.71,2834.68 2713.15,2848.55L2712.83,2838.23L2694.82,2857.01L2680.51,2859.48L2665.95,2887.93L2659.4,2882.05L2638.19,2891.57L2642.43,2867.33L2618.66,2881.83L2611.85,2870.8L2569.77,2908.87L2550.9,2922.82L2533.44,2898.07L2503.52,2930.77L2501.34,2931.08L2489.75,2927.26L2474.44,2923.89L2464.29,2930.94L2460.96,2925.75L2440.13,2924.99L2434.61,2924.89ZM1579.42,2892.75C1562.95,2843.93 1557.86,2774.96 1553.14,2740.57C1547.14,2696.89 1545.61,2607.99 1545.61,2607.99C1545.61,2607.99 1528.78,2637.64 1519.27,2630.93C1488.59,2609.25 1499.4,2495.11 1504.76,2427.26C1510.77,2351.3 1573.76,2259.03 1604.01,2230.41C1618.87,2216.35 1592.32,2179.15 1610.28,2169.36C1632.03,2157.49 1713.01,2153.29 1734.5,2159.23C1749.28,2163.31 1731.5,2191.73 1739.21,2204.99C1747.33,2218.94 1774.26,2230.57 1793.74,2251.9C1820.22,2280.89 1834.42,2324.07 1849.44,2356.82C1882.39,2428.65 1882.7,2587.22 1848.47,2623.21C1841.5,2630.53 1840.63,2612.77 1837.05,2603.31C1834.46,2596.48 1825.38,2615.39 1826.44,2599.7C1829.38,2556.65 1794.88,2474.83 1790.78,2465.28C1790.64,2464.69 1790.51,2464.38 1790.38,2464.36C1790.38,2464.36 1790.52,2464.68 1790.78,2465.28C1794.4,2480.63 1802.46,2684.48 1794.79,2761.35C1790.52,2804.21 1785.44,2874.55 1775.45,2915.76L1770.55,2917.12L1757.31,2918.02L1746,2913.57L1739.68,2902.64C1739.68,2902.64 1728.26,2906.75 1721.92,2906.65C1719.23,2906.6 1716.94,2904.58 1715.2,2902.28C1692.8,2829.15 1688.66,2697.27 1675.48,2691.62C1661.48,2685.62 1656.75,2819.59 1647.04,2895.87L1645.98,2895.07L1634.67,2899.54L1627.07,2894.6L1622.78,2899.63L1610.78,2896.9L1599.43,2887L1591.31,2893.43L1579.42,2892.75ZM290.737,2515.32C286.315,2490.84 298.422,2452.51 298.422,2452.51C298.422,2452.51 269.463,2409.6 271.129,2382.68C274.579,2326.95 291.436,2284.14 313.709,2263.34C339.292,2239.44 367.285,2231.41 394.145,2230.66C432.313,2229.59 495.362,2231.03 537.777,2256.41C592.573,2289.18 614.94,2361.03 617.537,2411.83C620.969,2478.96 556.38,2551.44 556.38,2551.44C556.38,2551.44 611.175,2543.17 628.259,2557.93C652.912,2579.22 641.644,2638.02 606.881,2663.57C599.996,2668.63 592.573,2675.75 584.891,2681.55L570.355,2678.45L560.84,2669.15L556.751,2659.62L537.852,2655.73L530.644,2638.09L509.525,2637.71L495.165,2636.65L484.089,2623.28L462.303,2623.57L460.523,2612.38L454.541,2607.8L446.29,2594.3L425.571,2590.13L409.659,2574.74L378.857,2569.5L381.052,2555.35L364.762,2555.34L362.982,2533.49L353.218,2529.75L340.014,2522.39L304.05,2523.12L301.084,2516.62L291.413,2515.69L290.737,2515.32ZM-158.752,1981.06C-175.936,1978.42 -182.976,1963.81 -183.818,1950.72C-186.268,1912.6 -181.764,1801.36 -172.205,1752.49C-165.46,1718.02 -141.604,1681.49 -126.462,1657.55C-114.634,1638.84 -99.268,1621.4 -81.353,1608.84C-66.866,1598.68 -40.348,1582.43 -20.042,1580.68C0.553,1578.9 24.996,1585.64 46.235,1596.68C77.101,1612.71 123.558,1649.51 139.482,1715.23C155.045,1779.45 146.111,1932.43 142.776,1981.24C142.017,1992.36 122.676,2009.2 112.606,2010.93C108.957,2043.71 109.063,2125.25 96.092,2182.29C83.955,2235.67 58.64,2324.62 41.208,2371.51L39.888,2367.44L27.367,2354.82L15.234,2363.06L0,2359.52L-2.441,2353.08C-10.125,2279.37 -16.019,2090.14 -21.85,2085.61C-27.731,2081.03 -27.788,2265.14 -36.045,2327.72L-42.054,2328.32L-52.366,2321.02L-60.808,2313.06L-72.773,2321.68L-78.759,2315.5L-93.241,2314.69L-94.902,2304.77L-98.486,2304.56C-114.015,2261.47 -124.007,2187.95 -126.544,2138.13C-128.764,2094.51 -134.906,2044.8 -137.272,2006.76C-137.673,2000.3 -141.147,1963.53 -141.147,1963.53C-145.391,1973.29 -151.309,1979.01 -158.752,1981.06Z" style="fill:white;"/>
                <clipPath id="_clip1">
                    <path d="M2434.61,2924.89C2430.3,2917.03 2427.87,2907.05 2428.13,2900.77C2428.57,2890.47 2428.59,2869.03 2428.59,2869.03C2428.59,2869.03 2392.54,2861.98 2390.67,2840.09C2388.5,2814.61 2387.57,2756.34 2415.7,2716.47C2436.9,2686.42 2496.73,2641.78 2540.33,2637.32C2604.31,2630.78 2674.1,2656.02 2690.21,2682.9C2700.97,2700.87 2711.21,2721.44 2712.26,2742.24C2713.36,2764.02 2719.75,2786.27 2717.38,2809.22C2716.25,2820.1 2715.71,2834.68 2713.15,2848.55L2712.83,2838.23L2694.82,2857.01L2680.51,2859.48L2665.95,2887.93L2659.4,2882.05L2638.19,2891.57L2642.43,2867.33L2618.66,2881.83L2611.85,2870.8L2569.77,2908.87L2550.9,2922.82L2533.44,2898.07L2503.52,2930.77L2501.34,2931.08L2489.75,2927.26L2474.44,2923.89L2464.29,2930.94L2460.96,2925.75L2440.13,2924.99L2434.61,2924.89ZM1579.42,2892.75C1562.95,2843.93 1557.86,2774.96 1553.14,2740.57C1547.14,2696.89 1545.61,2607.99 1545.61,2607.99C1545.61,2607.99 1528.78,2637.64 1519.27,2630.93C1488.59,2609.25 1499.4,2495.11 1504.76,2427.26C1510.77,2351.3 1573.76,2259.03 1604.01,2230.41C1618.87,2216.35 1592.32,2179.15 1610.28,2169.36C1632.03,2157.49 1713.01,2153.29 1734.5,2159.23C1749.28,2163.31 1731.5,2191.73 1739.21,2204.99C1747.33,2218.94 1774.26,2230.57 1793.74,2251.9C1820.22,2280.89 1834.42,2324.07 1849.44,2356.82C1882.39,2428.65 1882.7,2587.22 1848.47,2623.21C1841.5,2630.53 1840.63,2612.77 1837.05,2603.31C1834.46,2596.48 1825.38,2615.39 1826.44,2599.7C1829.38,2556.65 1794.88,2474.83 1790.78,2465.28C1790.64,2464.69 1790.51,2464.38 1790.38,2464.36C1790.38,2464.36 1790.52,2464.68 1790.78,2465.28C1794.4,2480.63 1802.46,2684.48 1794.79,2761.35C1790.52,2804.21 1785.44,2874.55 1775.45,2915.76L1770.55,2917.12L1757.31,2918.02L1746,2913.57L1739.68,2902.64C1739.68,2902.64 1728.26,2906.75 1721.92,2906.65C1719.23,2906.6 1716.94,2904.58 1715.2,2902.28C1692.8,2829.15 1688.66,2697.27 1675.48,2691.62C1661.48,2685.62 1656.75,2819.59 1647.04,2895.87L1645.98,2895.07L1634.67,2899.54L1627.07,2894.6L1622.78,2899.63L1610.78,2896.9L1599.43,2887L1591.31,2893.43L1579.42,2892.75ZM290.737,2515.32C286.315,2490.84 298.422,2452.51 298.422,2452.51C298.422,2452.51 269.463,2409.6 271.129,2382.68C274.579,2326.95 291.436,2284.14 313.709,2263.34C339.292,2239.44 367.285,2231.41 394.145,2230.66C432.313,2229.59 495.362,2231.03 537.777,2256.41C592.573,2289.18 614.94,2361.03 617.537,2411.83C620.969,2478.96 556.38,2551.44 556.38,2551.44C556.38,2551.44 611.175,2543.17 628.259,2557.93C652.912,2579.22 641.644,2638.02 606.881,2663.57C599.996,2668.63 592.573,2675.75 584.891,2681.55L570.355,2678.45L560.84,2669.15L556.751,2659.62L537.852,2655.73L530.644,2638.09L509.525,2637.71L495.165,2636.65L484.089,2623.28L462.303,2623.57L460.523,2612.38L454.541,2607.8L446.29,2594.3L425.571,2590.13L409.659,2574.74L378.857,2569.5L381.052,2555.35L364.762,2555.34L362.982,2533.49L353.218,2529.75L340.014,2522.39L304.05,2523.12L301.084,2516.62L291.413,2515.69L290.737,2515.32ZM-158.752,1981.06C-175.936,1978.42 -182.976,1963.81 -183.818,1950.72C-186.268,1912.6 -181.764,1801.36 -172.205,1752.49C-165.46,1718.02 -141.604,1681.49 -126.462,1657.55C-114.634,1638.84 -99.268,1621.4 -81.353,1608.84C-66.866,1598.68 -40.348,1582.43 -20.042,1580.68C0.553,1578.9 24.996,1585.64 46.235,1596.68C77.101,1612.71 123.558,1649.51 139.482,1715.23C155.045,1779.45 146.111,1932.43 142.776,1981.24C142.017,1992.36 122.676,2009.2 112.606,2010.93C108.957,2043.71 109.063,2125.25 96.092,2182.29C83.955,2235.67 58.64,2324.62 41.208,2371.51L39.888,2367.44L27.367,2354.82L15.234,2363.06L0,2359.52L-2.441,2353.08C-10.125,2279.37 -16.019,2090.14 -21.85,2085.61C-27.731,2081.03 -27.788,2265.14 -36.045,2327.72L-42.054,2328.32L-52.366,2321.02L-60.808,2313.06L-72.773,2321.68L-78.759,2315.5L-93.241,2314.69L-94.902,2304.77L-98.486,2304.56C-114.015,2261.47 -124.007,2187.95 -126.544,2138.13C-128.764,2094.51 -134.906,2044.8 -137.272,2006.76C-137.673,2000.3 -141.147,1963.53 -141.147,1963.53C-145.391,1973.29 -151.309,1979.01 -158.752,1981.06Z"/>
                </clipPath>
                <g clip-path="url(#_clip1)">
                    <path d="M363.774,2346.27C363.716,2346.31 363.84,2346.4 363.962,2346.47C364.009,2346.51 364.058,2346.56 364.11,2346.6C364.182,2347.13 364.041,2348.14 364.087,2348.98C364.272,2352.3 364.157,2357.49 364.213,2363.37C364.281,2370.39 364.576,2378.35 365.058,2385.3C365.461,2391.11 366.093,2396.23 367.021,2399.59C367.539,2401.46 368.198,2402.88 368.891,2403.78C376.114,2413.14 381.209,2422.14 384.845,2430.05C390.365,2442.06 392.049,2451.67 393.21,2456.2C393.382,2456.87 393.579,2457.39 393.777,2457.81C393.924,2458.13 394.134,2458.26 394.212,2458.48C394.819,2460.24 395.957,2460.83 396.292,2460.97L396.386,2461.01L396.386,2461.01L396.387,2461.01L396.386,2461.01L396.387,2461.01C396.431,2461.01 396.476,2461.01 396.52,2461.01C397.687,2460.93 398.574,2459.93 398.5,2458.76L398.183,2459.1C398.316,2458.77 398.42,2458.4 398.478,2457.97C398.515,2457.69 398.666,2457.45 398.737,2457.04C398.834,2456.47 398.862,2455.78 398.808,2454.94C398.777,2454.46 398.649,2453.94 398.55,2453.39C397.771,2449 396.149,2442.04 392.787,2433.51C389.011,2423.92 383.023,2412.34 373.619,2400.13C372.837,2399.12 372.412,2396.93 371.963,2394.09C371.207,2389.31 370.789,2382.9 370.474,2376.31C370.265,2371.94 370.156,2367.49 369.94,2363.37C369.671,2358.26 369.294,2353.66 368.91,2350.31C368.581,2347.43 368.172,2345.38 367.751,2344.51C367.175,2343.32 366.359,2342.9 365.73,2342.84C364.575,2342.66 363.495,2343.46 363.321,2344.62C363.228,2345.23 363.41,2345.82 363.774,2346.27ZM364.607,2346.89L364.621,2346.89L364.597,2346.88L364.607,2346.89ZM364.485,2346.83L364.496,2346.84L364.491,2346.84L364.474,2346.83L364.485,2346.83ZM364.105,2346.56C364.068,2346.33 363.983,2346.2 363.812,2346.25C363.794,2346.26 363.782,2346.26 363.774,2346.27L363.84,2346.35C363.863,2346.37 363.886,2346.39 363.91,2346.42L364.026,2346.51C364.049,2346.53 364.071,2346.54 364.094,2346.55L364.105,2346.56Z"/>
                    <path d="M316.719,2500.76C316.719,2500.76 337.904,2477.78 365.333,2467.59C377.139,2463.21 390.126,2461.13 403.145,2464.68C418.65,2468.87 432.965,2481.64 443.699,2497.28C454.265,2512.68 461.364,2530.91 462.513,2546.85C463.285,2557.42 463.216,2569.93 462.88,2582.16C462.129,2609.43 459.753,2635.3 459.753,2635.3C459.624,2636.51 460.499,2637.59 461.705,2637.72C462.911,2637.85 463.995,2636.98 464.124,2635.77C464.124,2635.77 467.289,2609.78 468.384,2582.34C468.88,2569.92 468.89,2557.2 468.147,2546.45C466.966,2529.61 459.589,2510.3 448.446,2494.03C436.91,2477.18 421.339,2463.63 404.651,2459.11C390.414,2455.28 376.177,2457.36 363.334,2462.3C334.917,2473.24 313.445,2497.83 313.445,2497.83C312.636,2498.73 312.712,2500.12 313.615,2500.93C314.518,2501.74 315.909,2501.67 316.719,2500.76Z"/>
                    <path d="M336.33,2478.91C327.974,2475.82 320.548,2471.21 313.852,2466.02C302.3,2457.07 292.873,2446.47 284.367,2439.12C284.08,2437.37 282.495,2437.46 281.577,2438.49C280.658,2439.53 280.751,2441.11 281.784,2442.03L282.529,2441.19C290.86,2448.83 300.069,2459.71 311.37,2469.11C318.227,2474.82 325.838,2479.98 334.503,2483.57C335.789,2484.07 337.244,2483.44 337.748,2482.15C338.252,2480.86 337.617,2479.41 336.33,2478.91Z"/>
                    <path d="M1545.54,2619.6C1545.54,2619.6 1545.15,2588.87 1547.26,2561.46C1548.49,2545.6 1550.49,2530.86 1554.01,2524.12C1558.53,2515.43 1563.96,2501.71 1568.6,2488.26C1573.98,2472.69 1578.28,2457.47 1579.08,2450.78C1579.58,2446.26 1581.37,2435.68 1583.62,2423.76C1585.29,2414.87 1587.22,2405.25 1589.23,2396.87C1590.71,2390.69 1592.21,2385.2 1593.68,2381.18C1594.66,2378.51 1595.53,2376.53 1596.44,2375.63C1596.08,2374.55 1596.1,2374 1595.77,2373.65C1595.44,2373.3 1594.89,2373.28 1594.54,2373.61L1593.83,2372.85C1592.62,2373.95 1591.24,2376.33 1589.86,2379.71C1588.2,2383.79 1586.44,2389.4 1584.75,2395.73C1582.49,2404.14 1580.3,2413.81 1578.52,2422.77C1576.12,2434.85 1574.46,2445.62 1573.95,2450.21C1573.27,2456.72 1569.23,2471.57 1564.26,2486.81C1559.92,2500.12 1554.87,2513.74 1550.58,2522.37C1547.77,2528.03 1545.97,2538.94 1544.91,2551.53C1542.45,2580.95 1543.8,2619.64 1543.8,2619.64C1543.81,2620.12 1544.21,2620.5 1544.69,2620.49C1545.17,2620.48 1545.55,2620.08 1545.54,2619.6Z"/>
                    <path d="M1763.02,2354.01C1763.02,2354.01 1761.62,2374.45 1762.3,2393.2C1762.68,2403.78 1763.78,2413.82 1766.03,2419.55C1768.55,2425.86 1774.96,2440.33 1781.29,2454.94C1783,2458.9 1784.73,2462.86 1786.37,2466.67C1788.16,2470.83 1789.85,2474.81 1791.3,2478.42C1793.94,2485.02 1795.84,2490.28 1795.87,2492.95C1796.9,2493.45 1797.28,2493.85 1797.76,2493.86C1798.24,2493.86 1798.64,2493.48 1798.65,2493L1799.68,2493.02C1799.77,2491.32 1799.34,2488.66 1798.44,2485.31C1797.27,2480.94 1795.33,2475.32 1792.93,2469.17C1790.99,2464.18 1788.76,2458.85 1786.41,2453.56C1779.85,2438.8 1772.6,2424.28 1769.87,2417.95C1767.53,2412.59 1766.26,2403.07 1765.53,2393.03C1764.17,2374.43 1764.76,2354.1 1764.76,2354.1C1764.78,2353.62 1764.41,2353.21 1763.93,2353.19C1763.45,2353.16 1763.04,2353.53 1763.02,2354.01Z"/>
                    <path d="M2502.98,2939.67C2502.98,2939.67 2490.1,2918.95 2479.53,2892.05C2473.3,2876.19 2467.86,2858.17 2466.4,2841.01C2464.98,2824.43 2467.81,2803.29 2477.69,2786.52C2486.47,2771.6 2500.92,2760.19 2523.06,2758.8C2538.89,2757.81 2551.46,2763.74 2560.83,2772.19C2572.71,2782.9 2579.51,2797.61 2581.21,2807.55C2583.53,2820.78 2583.89,2837.93 2583.4,2855.06C2582.39,2890.96 2577.51,2926.79 2577.51,2926.79C2577.41,2927.81 2578.11,2928.76 2579.13,2928.9C2580.14,2929.05 2581.09,2928.35 2581.24,2927.33L2581.28,2927.34C2581.28,2927.34 2586.88,2891.35 2588.31,2855.23C2589,2837.72 2588.67,2820.19 2586.39,2806.66C2584.52,2795.89 2577.2,2779.91 2564.28,2768.35C2553.96,2759.11 2540.11,2752.66 2522.73,2753.83C2498.71,2755.45 2483.08,2767.89 2473.62,2784.14C2463.35,2801.8 2460.45,2824 2462.04,2841.39C2463.32,2855.39 2467.16,2869.93 2471.95,2883.46C2483.26,2915.38 2499.82,2941.64 2499.82,2941.64C2500.37,2942.51 2501.52,2942.78 2502.39,2942.23C2503.26,2941.69 2503.52,2940.54 2502.98,2939.67Z"/>
                    <path d="M2624,2887.48C2624,2887.48 2617.54,2857.17 2616.64,2826.32C2616.22,2811.96 2616.98,2797.49 2620.24,2785.97C2624.05,2772.44 2631.16,2760.74 2639.72,2751.96C2649.97,2741.44 2662.3,2735.09 2673.53,2735.12C2685.7,2735.08 2694.78,2739.05 2702.27,2746.07C2712.3,2755.47 2719.59,2770.15 2727.31,2788.19C2727.74,2789.12 2728.83,2789.57 2729.78,2789.18C2730.73,2788.79 2731.18,2787.7 2730.79,2786.75L2730.83,2786.73C2723.26,2767.8 2715.99,2752.36 2705.73,2742.44C2697.43,2734.42 2687.2,2729.93 2673.53,2729.89C2661.11,2729.92 2647.38,2736.76 2636.11,2748.47C2627.09,2757.85 2619.63,2770.32 2615.7,2784.71C2612.45,2796.65 2611.73,2811.62 2612.31,2826.47C2613.52,2857.67 2620.37,2888.28 2620.37,2888.28C2620.58,2889.28 2621.58,2889.92 2622.58,2889.7C2623.58,2889.48 2624.22,2888.49 2624,2887.48Z"/>
                    <path d="M2584.82,2803.66C2584.87,2803.73 2584.91,2803.82 2584.94,2803.87C2584.9,2803.79 2584.85,2803.72 2584.8,2803.66L2584.82,2803.66C2584.78,2803.6 2584.75,2803.55 2584.72,2803.56C2584.75,2803.59 2584.78,2803.62 2584.8,2803.66C2584.72,2803.66 2584.67,2803.65 2584.69,2803.59C2584.7,2803.57 2584.71,2803.56 2584.72,2803.56C2584.15,2802.91 2583.18,2802.74 2582.41,2803.18C2581.52,2803.69 2581.21,2804.83 2581.72,2805.72C2582.3,2806.8 2583.55,2807.49 2585.51,2807.43C2589.4,2807.29 2597.61,2803.55 2605.22,2798.62C2608.06,2796.78 2610.83,2794.8 2613.21,2792.76C2614.36,2791.78 2615.42,2790.79 2616.34,2789.79C2619.56,2786.3 2621.4,2782.93 2621.4,2780.57C2621.42,2779.54 2620.64,2778.65 2619.62,2778.58C2618.6,2778.51 2617.71,2779.29 2617.64,2780.31L2617.59,2780.31C2617.49,2781.02 2616.95,2781.74 2616.29,2782.6C2615.42,2783.73 2614.18,2784.9 2612.77,2786.18C2611.85,2787.01 2610.86,2787.88 2609.81,2788.77C2607.55,2790.68 2605.04,2792.68 2602.44,2794.52C2596.85,2798.49 2590.97,2801.92 2587.09,2803.15C2586.4,2803.37 2585.79,2803.53 2585.27,2803.58C2585.14,2803.59 2584.95,2803.64 2584.82,2803.66Z"/>
                    <path d="M2573.63,2778.9L2573.49,2778.94L2573.45,2778.95C2573.25,2778.99 2573.06,2779.05 2573.09,2779.14C2573,2779.21 2572.92,2779.28 2572.84,2779.37C2572.25,2780.02 2572.29,2781.02 2572.94,2781.61C2573.44,2782.09 2574.54,2782.53 2575.64,2781.23C2576.11,2780.66 2576.92,2779.22 2578.01,2777.1C2581.78,2769.74 2589.55,2753.64 2600.66,2740.13C2602.68,2737.68 2604.81,2735.32 2607.02,2733.09C2608.5,2731.59 2610.02,2730.15 2611.57,2728.78C2615.56,2725.25 2619.78,2722.2 2624.46,2720.2C2625.16,2719.59 2625.57,2718.67 2625.26,2717.85C2624.95,2717.03 2624.03,2716.62 2623.21,2716.93L2623.1,2716.63C2617.82,2718.41 2612.84,2721.23 2608.28,2724.87C2606.54,2726.26 2604.88,2727.78 2603.28,2729.39C2600.94,2731.75 2598.76,2734.32 2596.71,2736.97C2585.75,2751.12 2578.51,2767.94 2574.96,2775.62C2574.39,2776.86 2573.99,2778.25 2573.63,2778.9ZM2573.49,2778.95L2573.45,2778.95L2573.35,2779C2573.3,2779.02 2573.25,2779.05 2573.21,2779.07L2573.09,2779.14C2573.1,2779.17 2573.12,2779.19 2573.15,2779.22C2573.31,2779.34 2573.46,2779.21 2573.62,2778.93L2573.49,2778.95ZM2574.71,2779.01L2574.78,2779.06L2574.73,2779.03L2574.71,2779.01ZM2574.57,2778.95L2574.67,2779C2574.63,2778.98 2574.6,2778.97 2574.57,2778.95Z"/>
                    <path d="M2453.38,2750.67C2453.38,2750.67 2463.05,2754.02 2472.81,2758.54C2475.98,2760 2479.11,2761.66 2482,2763.22C2483.56,2764.06 2485.06,2764.83 2486.41,2765.64C2487.94,2766.56 2489.32,2767.41 2490.36,2768.38C2491.3,2768.48 2492.11,2768.53 2492.63,2768.06C2493.16,2767.59 2493.21,2766.78 2492.74,2766.26L2493.21,2765.84C2491.8,2763.97 2489.74,2762.03 2487.16,2760.25C2485.77,2759.3 2484.22,2758.42 2482.58,2757.61C2479.06,2755.85 2475.12,2754.4 2471.35,2753.12C2462.25,2750.02 2454.07,2748.22 2454.07,2748.22C2453.39,2748.03 2452.69,2748.42 2452.5,2749.1C2452.31,2749.78 2452.71,2750.48 2453.38,2750.67Z"/>
                    <path d="M2462.55,2842.82C2462.55,2842.82 2453.2,2851.36 2441.59,2859.7C2438.02,2862.26 2434.2,2864.74 2430.46,2867.1C2428.55,2868.3 2426.68,2869.49 2424.82,2870.57C2422.84,2871.72 2420.91,2872.78 2419,2873.64C2418.06,2874.05 2417.57,2875.12 2417.93,2876.08C2418.29,2877.04 2419.37,2877.53 2420.33,2877.17L2420.34,2877.21C2424.31,2875.96 2428.55,2874.18 2432.69,2871.84C2435.23,2870.4 2437.7,2868.7 2440.11,2866.97C2453.73,2857.24 2465.14,2845.48 2465.14,2845.48C2465.88,2844.77 2465.89,2843.59 2465.18,2842.86C2464.47,2842.12 2463.29,2842.1 2462.55,2842.82Z"/>
                    <path d="M113.481,2009.67C113.481,2009.67 110.25,2007.19 109.581,2000.98C109.288,1998.26 109.502,1994.86 110.62,1990.68C111.383,1987.83 110.907,1985.77 109.944,1984.13C108.786,1982.17 106.7,1980.87 104.784,1979.57C103.616,1978.78 102.403,1978.1 102.371,1976.69C102.281,1973 104.65,1954.69 105.773,1936.43C106.384,1926.5 106.612,1916.58 105.974,1908.95C105.202,1900.54 103.404,1886.78 100.549,1870.9C98.434,1859.14 95.712,1846.22 92.75,1833.4C89.763,1820.48 86.368,1807.72 83.102,1796.32C78.496,1780.25 73.933,1766.94 69.724,1760.08C65.983,1753.91 64.597,1739.73 64.675,1725.88C64.737,1715.02 65.743,1704.34 67.396,1697.77C68.11,1694.94 68.772,1692.91 69.725,1692.3C70.436,1691.84 70.641,1690.89 70.182,1690.18C69.724,1689.47 68.775,1689.26 68.064,1689.72C66.752,1690.56 65.389,1693.12 64.382,1697C62.633,1703.74 61.487,1714.69 61.322,1725.85C61.106,1740.48 62.657,1755.44 66.544,1761.99C71.098,1769.78 76.072,1785.86 80.595,1804.87C83.408,1816.7 85.923,1829.67 88.325,1842.44C89.942,1851.05 91.43,1859.57 92.851,1867.62C95.956,1885.2 98.497,1900.52 99.425,1909.58C100.052,1915.22 100.196,1922.18 100.099,1929.45C99.824,1949.86 97.615,1972.71 97.85,1976.87C97.994,1979.36 99.362,1981.07 101.319,1982.45C103.018,1983.65 105.304,1984.5 106.449,1986.28C106.99,1987.13 107.173,1988.22 106.828,1989.74C105.447,1995.82 105.716,2000.41 106.594,2003.78C108.185,2009.88 111.731,2012.19 111.731,2012.19C112.425,2012.67 113.381,2012.5 113.864,2011.81C114.347,2011.11 114.176,2010.16 113.481,2009.67Z"/>
                    <path d="M-98.247,1693.6C-97.94,1693.52 -97.551,1693.4 -97.62,1693.24C-96.715,1692.59 -96.261,1691.43 -96.566,1690.29C-96.961,1688.82 -98.474,1687.95 -99.943,1688.35C-100.929,1688.61 -102.156,1689.48 -102.937,1691.43C-103.607,1693.1 -104.153,1695.97 -104.562,1699.72C-106.054,1713.42 -105.957,1739.92 -107.2,1760.8C-107.855,1771.79 -108.91,1781.19 -110.582,1786.19C-113.791,1795.15 -119.613,1810.79 -125.204,1826.39C-130.929,1842.38 -136.417,1858.32 -139.489,1866.68C-141.475,1872.16 -142.532,1882.27 -142.987,1893.89C-143.919,1917.7 -142.506,1948.03 -143.078,1955.96C-143.368,1959.99 -144.668,1964.14 -146.166,1967.77C-148.779,1974.1 -152.031,1978.88 -152.031,1978.88C-152.89,1980.13 -152.567,1981.85 -151.311,1982.71C-150.056,1983.57 -148.339,1983.25 -147.48,1981.99C-147.48,1981.99 -142.997,1975.46 -140.037,1967.33C-138.766,1963.84 -137.782,1960.06 -137.506,1956.37C-136.915,1948.41 -138.231,1918 -137.269,1894.12C-136.831,1883.24 -135.966,1873.76 -134.106,1868.63C-131.599,1861.65 -127.264,1849.47 -122.862,1836.25C-116.804,1818.08 -110.541,1797.99 -107.192,1787.33C-105.818,1783.21 -104.912,1776.22 -104.147,1767.82C-102.108,1745.45 -101.36,1712.77 -99.061,1698.51C-98.765,1696.67 -98.58,1694.55 -98.247,1693.6ZM-97.62,1693.24C-97.627,1693.22 -97.646,1693.19 -97.676,1693.17C-97.909,1692.98 -98.089,1693.16 -98.238,1693.58C-98.327,1693.61 -98.419,1693.64 -98.513,1693.67L-98.247,1693.6L-98.238,1693.58C-98.014,1693.49 -97.806,1693.38 -97.62,1693.24Z"/>
                </g>
                <path d="M2433.17,2925.68C2433.45,2926.19 2433.99,2926.51 2434.58,2926.53L2440.08,2926.62C2440.08,2926.62 2459.9,2927.56 2459.9,2927.56C2459.9,2927.56 2462.68,2931.98 2462.68,2931.98C2462.96,2932.41 2463.4,2932.72 2463.91,2932.82C2464.42,2932.92 2464.95,2932.81 2465.38,2932.52L2474.85,2926.06C2474.85,2926.06 2489.17,2929.32 2489.17,2929.32C2489.17,2929.32 2500.64,2933.2 2500.64,2933.2C2500.96,2933.31 2501.31,2933.34 2501.65,2933.29L2503.84,2932.99C2504.36,2932.92 2504.83,2932.67 2505.18,2932.29L2533.14,2902.2C2533.14,2902.2 2548.62,2924.43 2548.62,2924.43C2549.05,2925.05 2549.72,2925.46 2550.46,2925.58C2551.2,2925.7 2551.96,2925.51 2552.56,2925.07L2571.52,2911.23C2571.6,2911.17 2571.68,2911.11 2571.75,2911.05L2611.09,2875.91C2611.09,2875.91 2615.78,2883.61 2615.78,2883.61C2616.76,2885.19 2618.83,2885.68 2620.42,2884.72L2637.59,2874.36C2637.59,2874.36 2634.61,2890.94 2634.61,2890.94C2634.38,2892.27 2634.9,2893.61 2635.96,2894.44C2637.02,2895.26 2638.45,2895.43 2639.68,2894.89L2658.7,2886.43C2658.7,2886.43 2663.45,2890.72 2663.45,2890.72C2664.31,2891.5 2665.49,2891.83 2666.64,2891.62C2667.78,2891.41 2668.76,2890.68 2669.29,2889.64L2683.06,2862.96C2683.06,2862.96 2695.49,2860.84 2695.49,2860.84C2696.31,2860.7 2697.06,2860.3 2697.63,2859.7L2709.16,2847.72C2709.16,2847.72 2709.19,2848.68 2709.19,2848.68C2709.26,2850.71 2710.84,2852.36 2712.86,2852.51C2714.88,2852.66 2716.69,2851.27 2717.05,2849.27C2718.04,2843.97 2718.74,2838.56 2719.29,2833.28C2720.19,2824.67 2720.67,2816.43 2721.39,2809.63C2722.12,2802.62 2722.07,2795.66 2721.6,2788.76C2720.5,2772.9 2717.13,2757.35 2716.37,2742.03C2715.94,2733.24 2713.95,2724.48 2710.97,2715.92C2706.68,2703.6 2700.34,2691.7 2693.79,2680.76C2685.71,2667.25 2664.83,2653.85 2637.72,2644.62C2609.18,2634.91 2573.74,2629.65 2539.89,2633.1C2518.07,2635.33 2492.24,2647.26 2469.02,2662.6C2444.75,2678.63 2423.35,2698.32 2412.26,2714.05C2402.02,2728.6 2395.48,2745.51 2391.48,2762.47C2384.27,2793.02 2385.25,2823.69 2386.72,2840.43C2387.51,2848.63 2392.25,2855.1 2398.57,2859.9C2407.81,2866.93 2420.26,2870.36 2425.5,2871.56C2425.5,2871.56 2425.81,2900.67 2425.81,2900.67C2425.76,2904.24 2426.52,2908.91 2428.01,2913.74C2429.27,2917.8 2431.01,2921.98 2433.17,2925.68ZM2711.11,2834.67C2710.7,2834.87 2710.31,2835.15 2709.98,2835.5L2692.89,2853.39C2692.89,2853.39 2679.86,2855.68 2679.86,2855.68C2678.66,2855.89 2677.63,2856.65 2677.08,2857.73L2664.81,2881.89C2664.81,2881.89 2661.89,2879.28 2661.89,2879.28C2660.79,2878.29 2659.22,2878.05 2657.88,2878.65L2642.92,2885.44C2642.92,2885.44 2645.89,2867.94 2645.89,2867.94C2646.13,2866.58 2645.55,2865.21 2644.41,2864.43C2643.27,2863.65 2641.78,2863.61 2640.6,2864.33L2619.74,2877.19C2619.74,2877.19 2614.66,2869.07 2614.66,2869.07C2614.14,2868.24 2613.28,2867.67 2612.31,2867.53C2611.34,2867.4 2610.36,2867.7 2609.63,2868.36L2567.89,2906.6C2567.89,2906.6 2551.51,2918.88 2551.51,2918.88C2551.51,2918.88 2535.56,2896.58 2535.56,2896.58C2535.1,2895.94 2534.38,2895.53 2533.6,2895.48C2532.82,2895.43 2532.05,2895.74 2531.52,2896.32L2502.39,2928.66C2502.39,2928.66 2501.52,2928.79 2501.52,2928.79C2501.52,2928.79 2490.42,2925.23 2490.42,2925.23C2490.35,2925.2 2490.28,2925.18 2490.21,2925.17L2474.87,2921.93C2474.32,2921.81 2473.75,2921.92 2473.28,2922.24L2464.8,2928.23C2464.8,2928.23 2462.52,2924.75 2462.52,2924.75C2462.19,2924.24 2461.63,2923.93 2461.03,2923.9L2440.16,2923.35L2435.62,2923.27C2433.99,2919.92 2432.72,2916.24 2431.83,2912.68C2430.72,2908.28 2430.23,2904.06 2430.45,2900.87C2430.74,2896.67 2431.03,2890.63 2431.24,2884.93C2431.54,2876.61 2431.7,2869.03 2431.7,2869.03C2431.7,2867.54 2430.65,2866.26 2429.18,2865.97C2429.18,2865.97 2413.7,2862.58 2403.18,2854.04C2398.68,2850.38 2395.07,2845.75 2394.63,2839.75C2393.48,2825.82 2392.75,2801.92 2397.06,2776.72C2400.46,2756.83 2406.99,2736.09 2419.14,2718.9C2429.79,2703.82 2450.41,2685.04 2473.69,2669.68C2495.7,2655.16 2520.08,2643.66 2540.76,2641.55C2573.36,2638.2 2607.5,2643.28 2635.01,2652.61C2659.8,2661.02 2679.22,2672.71 2686.63,2685.05C2692.91,2695.51 2699.02,2706.87 2703.15,2718.65C2705.88,2726.45 2707.73,2734.43 2708.15,2742.45C2708.94,2757.81 2712.36,2773.42 2713.5,2789.33C2713.95,2795.77 2714.03,2802.25 2713.36,2808.8C2712.67,2815.61 2712.21,2823.85 2711.34,2832.47C2711.27,2833.2 2711.19,2833.94 2711.11,2834.67ZM1674.63,2694.12C1675.42,2694.6 1675.96,2695.95 1676.7,2697.77C1678.03,2701.09 1679.26,2705.88 1680.46,2711.85C1688.61,2752.48 1694.74,2845.85 1712.14,2903.22C1712.25,2903.58 1712.42,2903.91 1712.65,2904.21C1713.92,2905.89 1715.44,2907.42 1717.14,2908.44C1718.6,2909.32 1720.19,2909.83 1721.87,2909.86C1724.15,2909.9 1727.02,2909.48 1729.86,2908.85C1732.99,2908.16 1736.09,2907.24 1738.18,2906.58C1738.18,2906.58 1743.14,2915.22 1743.14,2915.22C1743.52,2915.86 1744.1,2916.36 1744.79,2916.64L1756.09,2921.12C1756.55,2921.3 1757.04,2921.38 1757.54,2921.35L1770.78,2920.48C1771.01,2920.46 1771.24,2920.43 1771.46,2920.36L1776.36,2919.01C1777.54,2918.68 1778.45,2917.74 1778.73,2916.55C1782.89,2899.57 1786.23,2877.65 1789.02,2854.74C1793.01,2821.92 1795.89,2787.03 1798.46,2761.71C1801.88,2727.85 1802.32,2669.39 1801.39,2613.19C1800.6,2565.87 1798.83,2520.14 1797.12,2491.93C1802.7,2506.71 1809.46,2526.1 1814.62,2545.53C1819.79,2565.04 1823.38,2584.59 1822.37,2599.43C1822.06,2603.91 1822.69,2606.35 1823.37,2607.53C1824.72,2609.88 1826.62,2610.49 1828.81,2610.13C1829.89,2609.95 1831.24,2609.3 1832.61,2608.27L1834.03,2607.2C1835.18,2611.04 1836.06,2615.63 1837.12,2619.3C1838.11,2622.75 1839.4,2625.51 1840.83,2626.97C1842.38,2628.58 1844.19,2629.22 1846.17,2629.01C1847.66,2628.85 1849.5,2628.09 1851.45,2626.04C1857.8,2619.38 1863.12,2608.78 1867.24,2595.34C1873.5,2574.91 1877.11,2547.76 1878.06,2518.43C1879.92,2460.82 1871.49,2394.82 1853.27,2355.06C1844.17,2335.22 1835.36,2311.55 1823.97,2289.52C1816.35,2274.79 1807.58,2260.79 1796.86,2249.05C1782.31,2233.11 1763.67,2222.5 1751.62,2212.36C1747.85,2209.2 1744.77,2206.11 1742.88,2202.85C1740.41,2198.62 1741.38,2192.55 1742.41,2186.45C1743.71,2178.85 1745.42,2171.17 1744.59,2165.66C1743.8,2160.44 1741.21,2156.68 1735.63,2155.14C1724.54,2152.07 1697.96,2151.54 1671.48,2153.43C1645.34,2155.29 1619.33,2159.58 1608.25,2165.62C1602.72,2168.64 1600.24,2173.53 1599.66,2179.63C1598.81,2188.58 1602.69,2200.64 1604.08,2211.4C1604.9,2217.73 1605.04,2223.59 1601.09,2227.33C1584.32,2243.2 1557.58,2278.37 1535.85,2319.6C1517.86,2353.75 1503.33,2392.05 1500.58,2426.93C1497.27,2468.99 1491.91,2528.76 1495.53,2573.48C1496.95,2591.08 1499.79,2606.39 1504.57,2617.55C1507.78,2625.02 1511.9,2630.71 1516.92,2634.25C1521.23,2637.29 1526.74,2636.12 1532.05,2631.82C1535.52,2629.01 1538.99,2624.88 1541.88,2620.97C1542.31,2635.99 1543.2,2662.03 1544.84,2687.85C1546.07,2707.3 1547.77,2726.61 1549.87,2741.01C1553.06,2762.57 1556.5,2797.75 1562.86,2832.99C1566.65,2854.02 1571.49,2875.06 1577.87,2893.27C1578.08,2893.91 1578.66,2894.35 1579.33,2894.39L1591.21,2895.06C1591.61,2895.08 1592.01,2894.96 1592.32,2894.71L1599.37,2889.18C1599.37,2889.18 1609.63,2898.21 1609.63,2898.21C1609.85,2898.4 1610.11,2898.53 1610.39,2898.59L1622.38,2901.38C1623.03,2901.53 1623.71,2901.3 1624.14,2900.8L1627.41,2897.01C1627.41,2897.01 1633.65,2901.11 1633.65,2901.11C1634.15,2901.43 1634.79,2901.5 1635.35,2901.28L1645.67,2897.25C1645.67,2897.25 1645.88,2897.41 1645.88,2897.41C1646.43,2897.82 1647.15,2897.91 1647.78,2897.64C1648.41,2897.37 1648.86,2896.79 1648.94,2896.11C1655.36,2847.04 1659.79,2774.06 1665.86,2729.89C1667.85,2715.4 1669.99,2704.06 1672.48,2697.83C1673,2696.51 1673.53,2695.46 1674.08,2694.7C1674.23,2694.49 1674.48,2694.25 1674.63,2694.12ZM1846.04,2619.78C1852.6,2612.52 1857.66,2600.39 1861.49,2585.2C1867.92,2559.74 1870.66,2525.88 1869.85,2490.98C1868.71,2442.14 1860.62,2391.25 1845.62,2358.57C1836.56,2338.84 1827.81,2315.31 1816.47,2293.4C1809.19,2279.34 1800.85,2265.96 1790.61,2254.75C1776.33,2239.12 1757.98,2228.79 1746.16,2218.86C1741.55,2214.98 1737.86,2211.12 1735.54,2207.12C1732.75,2202.33 1732.53,2195.88 1733.42,2189.07C1734.46,2181.17 1737.07,2172.72 1736.19,2166.92C1735.93,2165.19 1735.22,2163.83 1733.37,2163.32C1722.77,2160.39 1697.38,2160.09 1672.09,2161.9C1647.4,2163.66 1622.78,2167.38 1612.32,2173.09C1607.49,2175.72 1607.6,2181.16 1608.35,2187.3C1609.57,2197.38 1613.4,2209.28 1612.95,2218.84C1612.67,2224.66 1610.92,2229.72 1606.93,2233.5C1590.57,2248.97 1564.54,2283.33 1543.33,2323.54C1525.86,2356.66 1511.63,2393.76 1508.95,2427.6C1505.63,2469.27 1500.23,2528.5 1503.76,2572.82C1505.08,2589.39 1507.61,2603.83 1512.1,2614.33C1514.61,2620.21 1517.68,2624.81 1521.62,2627.6C1522.47,2628.2 1523.44,2627.72 1524.48,2627.17C1526.11,2626.31 1527.77,2624.9 1529.4,2623.27C1536.12,2616.53 1542.09,2606 1542.09,2606C1542.99,2604.41 1544.84,2603.62 1546.6,2604.07C1548.37,2604.52 1549.61,2606.1 1549.65,2607.92C1549.65,2607.92 1550.27,2647.93 1552.3,2687.42C1553.28,2706.68 1554.56,2725.83 1556.4,2740.12C1559.14,2761.71 1561.91,2796.89 1567.49,2832.2C1570.73,2852.7 1574.9,2873.25 1580.63,2891.18L1580.63,2891.18C1580.63,2891.18 1590.78,2891.76 1590.78,2891.76L1598.39,2885.68C1599.03,2885.18 1599.93,2885.21 1600.54,2885.74C1600.54,2885.74 1611.59,2895.29 1611.59,2895.29C1611.59,2895.29 1622.11,2897.64 1622.11,2897.64L1625.68,2893.42C1626.28,2892.72 1627.3,2892.57 1628.07,2893.07C1628.07,2893.07 1634.87,2897.45 1634.87,2897.45L1645.27,2893.29C1645.32,2893.27 1645.37,2893.25 1645.42,2893.24C1651.35,2844.15 1655.26,2772.74 1660.95,2729.24C1663.44,2710.22 1666.44,2696.41 1669.88,2691.64C1671.9,2688.84 1674.23,2688.25 1676.51,2689.22C1677.88,2689.8 1679.32,2691.22 1680.57,2693.62C1682.39,2697.09 1684.09,2703 1685.69,2710.78C1694.01,2751.1 1700.55,2843.65 1718.07,2900.78C1718.64,2901.48 1719.28,2902.14 1719.98,2902.64C1720.59,2903.08 1721.25,2903.42 1721.98,2903.43C1723.83,2903.46 1726.15,2903.06 1728.45,2902.54C1733.58,2901.38 1738.57,2899.57 1738.57,2899.57C1740.06,2899.03 1741.71,2899.64 1742.5,2901.01C1742.5,2901.01 1748.27,2910.91 1748.27,2910.91C1748.27,2910.91 1757.83,2914.65 1757.83,2914.65C1757.83,2914.65 1769.97,2913.79 1769.97,2913.79C1769.97,2913.79 1772.62,2913.04 1772.62,2913.04C1776.44,2896.55 1779.5,2875.68 1782.06,2853.91C1785.92,2821.12 1788.65,2786.27 1791.12,2760.98C1793.85,2733.24 1794.48,2688.91 1794.04,2642.92C1793.27,2562.84 1789.27,2477.7 1786.95,2466.52C1786.83,2466.26 1786.75,2466.05 1786.75,2466.05L1786.86,2466.12L1786.84,2466.05L1786.89,2466.15L1790.38,2468.37L1790.47,2467.97C1790.87,2466.2 1792.55,2459.36 1794.08,2462.82C1793.57,2461.6 1792.47,2460.67 1791.11,2460.42L1790.87,2460.39C1790.95,2460.39 1791.03,2460.41 1791.11,2460.42C1791.87,2460.55 1792.72,2460.91 1793.48,2461.78C1793.76,2462.1 1794.24,2462.79 1794.58,2463.97C1797.56,2470.92 1812.77,2507.09 1822.46,2543.45C1827.85,2563.68 1831.5,2583.98 1830.56,2599.48C1831.45,2598.85 1832.34,2598.34 1833.15,2598.05C1834.59,2597.54 1835.95,2597.55 1837.17,2597.97C1838.54,2598.45 1839.98,2599.49 1840.88,2601.86C1842.54,2606.23 1843.65,2612.33 1845.01,2617.02C1845.27,2617.92 1845.69,2618.96 1846.04,2619.78ZM289.128,2515.61C289.216,2516.1 289.523,2516.53 289.961,2516.76L290.637,2517.13C290.828,2517.23 291.039,2517.29 291.256,2517.32L299.96,2518.18C299.96,2518.18 302.486,2523.83 302.486,2523.83C302.771,2524.46 303.399,2524.85 304.085,2524.84L339.502,2524.38C339.502,2524.38 352.203,2531.57 352.203,2531.57C352.29,2531.62 352.38,2531.66 352.473,2531.7L360.945,2535C360.945,2535 362.492,2555.52 362.492,2555.52C362.588,2556.7 363.575,2557.62 364.761,2557.62L378.266,2557.7C378.266,2557.7 376.424,2569.12 376.424,2569.12C376.218,2570.45 377.118,2571.7 378.444,2571.93L408.396,2577.2C408.396,2577.2 423.657,2592.11 423.657,2592.11C424.035,2592.47 424.511,2592.72 425.027,2592.83L444.49,2596.85C444.49,2596.85 452.036,2609.33 452.036,2609.33C452.225,2609.64 452.468,2609.91 452.755,2610.13L457.765,2614.01C457.765,2614.01 459.311,2624.04 459.311,2624.04C459.548,2625.53 460.839,2626.62 462.343,2626.6L482.615,2626.43C482.615,2626.43 492.683,2638.7 492.683,2638.7C493.242,2639.38 494.052,2639.8 494.927,2639.86L509.282,2640.99C509.343,2641 509.405,2641 509.466,2641L528.336,2641.43C528.336,2641.43 534.647,2657.04 534.647,2657.04C535.084,2658.11 536.024,2658.89 537.154,2659.12L554.22,2662.7C554.22,2662.7 557.557,2670.56 557.557,2670.56C557.741,2670.99 558.008,2671.38 558.342,2671.7L567.822,2681.04C568.313,2681.52 568.93,2681.85 569.601,2682L584.126,2685.14C585.169,2685.36 586.256,2685.12 587.107,2684.48C593.195,2679.91 599.127,2674.52 604.757,2669.95C606.227,2668.76 607.676,2667.63 609.101,2666.59C625.823,2654.36 637.418,2634.8 642.505,2615.05C648.638,2591.23 645.117,2567.26 630.863,2554.91C624.386,2549.3 612.974,2546.5 600.773,2545.54C588.224,2544.56 574.872,2545.38 566.001,2546.22C576.279,2533.32 596.306,2505.98 609.344,2473.99C617.41,2454.21 622.782,2432.65 621.72,2411.62C620.362,2384.84 613.61,2352.31 599.669,2322.54C586.562,2294.54 567.107,2269.01 539.957,2252.76C523.281,2242.79 503.505,2236.39 483.238,2232.39C451.128,2226.06 417.802,2225.76 394.027,2226.43C379.241,2226.85 364.124,2229.41 349.23,2235.44C336.141,2240.74 323.222,2248.71 310.855,2260.28C299.906,2270.53 290.156,2285.87 282.643,2305.39C274.493,2326.56 268.938,2352.69 267.157,2382.44C266.67,2391.75 269.531,2402.87 273.819,2413.55C281.098,2431.7 292.206,2448.61 295.206,2453.04C293.916,2457.72 289.872,2473.3 288.399,2489.66C287.591,2498.63 287.551,2507.83 289.128,2515.61ZM292.212,2514.12C291.189,2506.8 291.637,2498.36 292.722,2490.14C295.229,2471.16 301.238,2453.4 301.238,2453.4C301.509,2452.54 301.373,2451.61 300.869,2450.86C300.869,2450.86 288.379,2431.55 280.702,2410.9C277.106,2401.22 274.505,2391.26 275.101,2382.93C276.943,2354.13 282.411,2328.85 290.362,2308.37C297.402,2290.24 306.363,2275.91 316.563,2266.39C328.117,2255.62 340.174,2248.18 352.39,2243.25C366.315,2237.63 380.445,2235.27 394.263,2234.88C417.537,2234.24 450.162,2234.53 481.594,2240.73C500.881,2244.53 519.726,2250.56 535.598,2260.05C561.29,2275.41 579.599,2299.65 592.015,2326.12C605.483,2354.84 612.023,2386.21 613.354,2412.05C614.381,2431.88 609.237,2452.19 601.659,2470.87C584.088,2514.16 553.343,2548.73 553.343,2548.73C552.203,2550.01 551.987,2551.87 552.803,2553.37C553.619,2554.88 555.292,2555.72 556.987,2555.46C556.987,2555.46 579.679,2552.01 600.154,2553.56C610.433,2554.35 620.187,2556.23 625.656,2560.94C638.021,2571.59 640.186,2592.49 634.959,2613.12C630.368,2631.24 619.928,2649.27 604.661,2660.55C603.145,2661.67 601.603,2662.88 600.04,2664.16C594.904,2668.37 589.521,2673.28 583.988,2677.6C583.988,2677.6 572.124,2675.12 572.124,2675.12C572.124,2675.12 563.836,2667.08 563.836,2667.08C563.836,2667.08 559.998,2658.23 559.998,2658.23C559.543,2657.17 558.596,2656.4 557.464,2656.16L540.347,2652.71C540.347,2652.71 533.783,2636.81 533.783,2636.81C533.27,2635.55 532.06,2634.73 530.705,2634.7L509.661,2634.42C509.661,2634.42 496.756,2633.53 496.756,2633.53C496.756,2633.53 486.504,2621.28 486.504,2621.28C485.899,2620.55 484.996,2620.13 484.047,2620.14L464.867,2620.49C464.867,2620.49 463.459,2611.92 463.459,2611.92C463.339,2611.16 462.936,2610.49 462.331,2610.02L456.752,2605.79C456.752,2605.79 448.728,2592.81 448.728,2592.81C448.313,2592.13 447.634,2591.66 446.854,2591.5L426.893,2587.58C426.893,2587.58 411.497,2572.84 411.497,2572.84C411.114,2572.47 410.628,2572.22 410.102,2572.13L381.65,2567.46C381.65,2567.46 383.4,2555.71 383.4,2555.71C383.506,2555.03 383.308,2554.33 382.857,2553.8C382.405,2553.28 381.747,2552.97 381.053,2552.97L366.847,2553.05C366.847,2553.05 365.12,2533.32 365.12,2533.32C365.053,2532.49 364.52,2531.78 363.749,2531.49L354.09,2527.86C354.09,2527.86 340.984,2520.65 340.984,2520.65C340.675,2520.48 340.327,2520.39 339.973,2520.4L305.131,2521.37C305.131,2521.37 302.596,2515.93 302.596,2515.93C302.35,2515.39 301.834,2515.02 301.244,2514.97L292.212,2514.12ZM-21.702,2113.13C-21.098,2120.6 -20.49,2129.36 -19.872,2139.06C-15.871,2201.85 -11.583,2303.85 -6.455,2353.5C-6.419,2353.85 -6.338,2354.19 -6.215,2354.51L-3.778,2360.95C-3.3,2362.21 -2.226,2363.15 -0.914,2363.46L14.318,2367C15.418,2367.26 16.574,2367.04 17.508,2366.41L26.856,2360.07C26.856,2360.07 36.315,2369.61 36.315,2369.61C36.315,2369.61 37.334,2372.77 37.334,2372.77C37.868,2374.42 39.388,2375.55 41.121,2375.58C42.854,2375.62 44.42,2374.56 45.024,2372.93C53.925,2349.03 64.88,2314.24 75.096,2278.77C84.974,2244.47 94.162,2209.53 100.156,2183.22C104.904,2162.38 107.931,2138.29 110.022,2114.47C113.51,2074.75 114.396,2035.8 116.505,2014.22C121.807,2012.32 128.451,2007.98 134.132,2002.63C141.17,1996 146.562,1987.85 146.995,1981.53C149.017,1952 153.088,1884.4 152.562,1821.31C152.215,1779.63 149.833,1739.9 143.613,1714.23C136.604,1685.32 123.824,1661.89 109.022,1643.25C89.389,1618.54 66.19,1602.28 48.182,1592.93C37.679,1587.48 26.413,1583.05 15.193,1580.12C2.933,1576.93 -9.276,1575.53 -20.403,1576.5C-28.892,1577.23 -38.425,1580.34 -47.772,1584.53C-61.503,1590.69 -74.851,1599.19 -83.745,1605.43C-92.979,1611.91 -101.557,1619.65 -109.341,1628.18C-117.026,1636.61 -123.937,1645.82 -129.95,1655.34C-139.316,1670.18 -151.988,1689.82 -161.938,1710.82C-168.274,1724.2 -173.504,1738.12 -176.15,1751.72C-180.612,1775.41 -183.894,1813.62 -185.605,1851.16C-187.443,1891.5 -187.498,1931.05 -185.996,1950.86C-185.438,1958.11 -183.073,1965.77 -178.328,1971.79C-173.994,1977.28 -167.71,1981.45 -159,1982.68C-158.772,1982.72 -158.539,1982.7 -158.317,1982.64C-153.972,1981.44 -150.116,1979.08 -146.759,1975.49C-145.176,1973.79 -143.701,1971.82 -142.344,1969.57C-142.344,1969.57 -139.183,2006.88 -139.183,2006.88C-137.609,2033.8 -134.169,2066.56 -131.559,2098.87C-130.48,2112.22 -129.544,2125.5 -128.941,2138.25C-127.552,2167.46 -123.643,2204.8 -117.542,2239.43C-113.186,2264.15 -107.703,2287.5 -101.256,2305.56C-100.856,2306.67 -99.834,2307.43 -98.656,2307.5L-97.436,2307.58C-97.436,2307.58 -96.186,2315.18 -96.186,2315.18C-95.956,2316.56 -94.801,2317.6 -93.407,2317.67L-80.119,2318.45C-80.119,2318.45 -74.967,2323.8 -74.967,2323.8C-73.912,2324.89 -72.218,2325.04 -70.987,2324.15L-61.086,2317.07C-61.086,2317.07 -54.516,2323.3 -54.516,2323.3C-54.41,2323.4 -54.296,2323.49 -54.176,2323.58L-43.886,2330.91C-43.262,2331.35 -42.498,2331.55 -41.737,2331.48L-35.727,2330.89C-34.255,2330.75 -33.077,2329.61 -32.883,2328.14C-26.58,2281.22 -24.69,2166.05 -21.702,2113.13ZM40.297,2362.08L30.248,2351.97C28.872,2350.58 26.704,2350.37 25.088,2351.47L14.423,2358.71C14.423,2358.71 3.012,2356.07 3.012,2356.07C3.012,2356.07 1.518,2352.14 1.518,2352.14C-4.514,2294.36 -9.518,2167.03 -14.213,2111.72C-15.219,2099.88 -16.236,2091.26 -17.217,2087.2C-17.854,2084.56 -18.916,2083.14 -19.549,2082.65C-21.135,2081.42 -25.29,2080.9 -26.661,2086.51C-27.508,2089.97 -28.258,2097.89 -28.89,2108.95C-31.753,2159.02 -32.952,2275.3 -38.896,2324.81C-38.896,2324.81 -41.199,2325.05 -41.199,2325.05C-41.199,2325.05 -50.383,2318.59 -50.383,2318.59C-50.383,2318.59 -58.682,2310.8 -58.682,2310.8C-59.762,2309.78 -61.414,2309.67 -62.62,2310.54L-72.428,2317.65C-72.428,2317.65 -76.584,2313.39 -76.584,2313.39C-77.114,2312.84 -77.831,2312.51 -78.591,2312.47L-90.699,2311.84C-90.699,2311.84 -91.987,2304.28 -91.987,2304.28C-92.214,2302.92 -93.353,2301.9 -94.73,2301.82L-96.372,2301.73C-102.552,2284.23 -107.845,2261.98 -112.143,2238.46C-118.423,2204.09 -122.571,2167.02 -124.146,2138.01C-124.845,2125.21 -125.881,2111.89 -127.062,2098.49C-129.908,2066.23 -133.589,2033.52 -135.361,2006.64L-139.452,1963.37C-139.525,1962.59 -140.112,1961.97 -140.879,1961.84C-141.646,1961.72 -142.399,1962.13 -142.709,1962.85C-144.533,1967.1 -146.674,1970.57 -149.16,1973.25C-151.971,1976.29 -155.208,1978.32 -158.841,1979.39L-158.843,1979.39C-166.306,1978.06 -171.66,1974.32 -175.297,1969.46C-179.399,1963.97 -181.306,1957.07 -181.639,1950.58C-182.68,1930.86 -181.533,1891.58 -178.966,1851.53C-176.587,1814.41 -173.002,1776.64 -168.259,1753.27C-165.709,1740.3 -160.661,1727.05 -154.594,1714.31C-144.755,1693.65 -132.225,1674.35 -122.975,1659.75C-117.205,1650.64 -110.576,1641.84 -103.21,1633.78C-95.831,1625.71 -87.71,1618.38 -78.962,1612.25C-70.4,1606.26 -57.56,1598.09 -44.347,1592.17C-35.914,1588.39 -27.338,1585.52 -19.681,1584.86C-9.442,1583.99 1.785,1585.33 13.064,1588.28C23.685,1591.05 34.347,1595.26 44.289,1600.42C61.488,1609.36 83.64,1624.9 102.387,1648.52C116.498,1666.3 128.676,1688.66 135.352,1716.23C141.461,1741.44 143.722,1780.45 144.069,1821.38C144.602,1884.22 140.564,1951.54 138.557,1980.95C138.233,1985.71 133.631,1991.49 128.339,1996.48C122.829,2001.67 116.379,2006 111.891,2006.77C110.039,2007.09 108.62,2008.6 108.412,2010.46C106.089,2031.38 105.291,2072.14 101.665,2113.74C99.623,2137.17 96.683,2160.87 92.029,2181.37C86.084,2207.56 76.958,2242.34 67.159,2276.49C58.128,2307.96 48.527,2338.89 40.297,2362.08Z"/>
            </g>
        </g>
    </g>
</svg>
