<?xml version="1.0" encoding="UTF-8" standalone="no"?>
<!DOCTYPE svg PUBLIC "-//W3C//DTD SVG 1.1//EN" "http://www.w3.org/Graphics/SVG/1.1/DTD/svg11.dtd">
<svg width="100%" height="100%" viewBox="0 0 618 619" version="1.1" xmlns="http://www.w3.org/2000/svg" xmlns:xlink="http://www.w3.org/1999/xlink" xml:space="preserve" xmlns:serif="http://www.serif.com/" style="fill-rule:evenodd;clip-rule:evenodd;stroke-linejoin:round;stroke-miterlimit:2;">
    <g transform="matrix(1,0,0,1,-2061,-2)">
        <g id="sprite-3" transform="matrix(1,0,0,1,712.831,-180.498)">
            <rect x="1348.52" y="183.179" width="617.537" height="617.537" style="fill:none;"/>
            <g transform="matrix(-0.283499,0.958973,-0.958973,-0.283499,2078.06,344.166)">
                <path d="M112.562,541.318L335.416,544.127L533.714,440.357L511.463,287.625L161.841,184.614L72.817,284.397L112.562,541.318Z"/>
                <path d="M109.625,541.953C109.665,542.785 110.736,543.27 112.157,543.101L112.524,544.342L335.381,546.887C335.839,546.893 336.291,546.785 336.696,546.573L534.874,442.574C535.816,442.081 536.343,441.047 536.19,439.996L513.768,287.289C513.637,286.389 512.994,285.648 512.122,285.391L162.393,182.74C161.669,182.527 160.886,182.75 160.384,183.314L71.457,283.183C71.095,283.59 70.933,284.137 71.016,284.675L110.912,541.573L109.625,541.953ZM113.788,538.31L74.75,284.97C74.75,284.97 162.473,186.838 162.473,186.838C162.473,186.838 509.371,289.435 509.371,289.435C509.371,289.435 530.984,438.959 530.984,438.959C512.992,448.347 346.228,535.371 334.757,541.357L113.788,538.31Z"/>
            </g>
            <g transform="matrix(4.08324,0,0,4.08324,-2231.87,-1146.16)">
                <path d="M970.812,335.087C1007.7,349.649 1015.38,380.017 997.725,416.68C982.699,447.875 957.999,483.267 916.527,466.984C887.656,455.649 901.884,435.32 900.096,400.74C897.79,356.123 930.119,319.022 970.812,335.087ZM929.978,445.13C935.323,444.923 939.726,447.38 939.669,452.729C939.636,455.856 938.56,458.275 933.211,458.275C927.862,458.275 920.931,453.264 923.52,448.583C925.444,445.106 927.774,445.215 929.978,445.13ZM982.785,380.335C989.781,380.335 995.46,386.015 995.46,393.011C995.46,400.006 989.781,405.686 982.785,405.686C975.79,405.686 970.11,400.006 970.11,393.011C970.11,386.015 975.79,380.335 982.785,380.335ZM929.202,359.576C936.197,359.576 941.877,365.256 941.877,372.251C941.877,379.247 936.197,384.926 929.202,384.926C922.206,384.926 916.527,379.247 916.527,372.251C916.527,365.256 922.206,359.576 929.202,359.576Z" style="fill:white;"/>
                <path d="M971.114,334.324C956.234,328.304 942.389,329.326 930.87,335.212C925.649,337.879 920.905,341.552 916.768,346.029C904.664,359.127 897.729,379.1 898.849,400.805C899.482,412.87 898.147,423.192 897.396,431.995C896.683,440.352 896.518,447.38 898.852,453.264C901.254,459.317 906.253,464.231 916.096,468.082C932.695,474.573 946.661,472.967 958.429,466.715C976.536,457.096 989.423,436.336 998.639,417.12C1007.34,398.959 1009.89,382.325 1005.9,368.35C1001.71,353.662 990.316,341.861 971.114,334.324L971.114,334.324ZM970.511,335.85C989.073,343.221 1000.13,354.615 1004.14,368.851C1007.96,382.456 1005.34,398.611 996.811,416.24C987.726,435.02 975.133,455.369 957.38,464.732C946.126,470.668 932.789,472.127 916.958,465.886C907.946,462.336 903.283,457.929 901.094,452.378C898.893,446.795 899.148,440.127 899.837,432.205C900.611,423.307 901.965,412.874 901.343,400.676C900.257,379.698 906.962,360.428 918.6,347.714C922.523,343.429 927,339.884 931.942,337.277C942.912,331.49 956.149,330.32 970.511,335.85L970.511,335.85ZM929.946,444.31C928.537,444.263 927.1,444.198 925.669,444.814C924.903,445.143 924.151,445.677 923.427,446.513C923.077,446.917 922.751,447.408 922.424,447.977C921.023,450.515 921.758,453.156 923.72,455.291C925.973,457.743 929.88,459.472 933.211,459.445C935.777,459.415 937.468,458.866 938.579,458.025C940.2,456.797 940.721,454.929 940.715,452.74C940.699,449.595 939.348,447.346 937.204,445.953C935.297,444.714 932.739,444.156 929.946,444.31ZM930.01,445.949C932.394,445.896 934.568,446.398 936.159,447.506C937.742,448.608 938.686,450.345 938.624,452.717C938.588,454.166 938.35,455.448 937.257,456.233C936.414,456.84 935.124,457.127 933.211,457.104C930.966,457.085 928.431,456.058 926.588,454.573C924.757,453.097 923.532,451.14 924.615,449.189C924.911,448.629 925.221,448.176 925.535,447.802C925.908,447.356 926.267,447.012 926.665,446.776C927.738,446.142 928.889,446.073 930.01,445.949ZM982.785,379.515C979.004,379.364 975.499,380.76 972.963,383.188C970.39,385.651 968.868,389.171 968.854,393.011C968.866,396.851 970.429,400.329 972.959,402.837C975.481,405.337 978.957,406.876 982.785,406.856C986.596,406.829 990.044,405.269 992.524,402.749C994.99,400.244 996.508,396.8 996.475,393.011C996.439,389.246 994.889,385.845 992.396,383.4C989.92,380.972 986.523,379.478 982.785,379.515ZM982.785,381.156C986.043,381.188 988.98,382.541 991.096,384.699C993.195,386.839 994.477,389.779 994.446,393.011C994.418,396.217 993.088,399.107 990.968,401.193C988.863,403.266 985.97,404.538 982.785,404.515C979.618,404.498 976.758,403.193 974.69,401.106C972.629,399.027 971.356,396.166 971.366,393.011C971.354,389.854 972.661,387.026 974.686,384.911C976.753,382.752 979.566,381.285 982.785,381.156ZM929.202,358.756C925.42,358.604 921.915,360.001 919.379,362.429C916.806,364.891 915.285,368.412 915.27,372.251C915.283,376.091 916.846,379.569 919.375,382.077C921.897,384.578 925.373,386.117 929.202,386.097C933.013,386.07 936.46,384.51 938.941,381.99C941.407,379.485 942.924,376.041 942.891,372.251C942.855,368.487 941.306,365.086 938.812,362.641C936.336,360.213 932.94,358.719 929.202,358.756ZM929.202,360.397C932.46,360.429 935.397,361.782 937.513,363.94C939.612,366.08 940.893,369.02 940.862,372.251C940.835,375.457 939.504,378.348 937.385,380.434C935.279,382.507 932.386,383.778 929.202,383.756C926.034,383.739 923.175,382.434 921.106,380.347C919.045,378.268 917.773,375.407 917.783,372.251C917.771,369.095 919.078,366.267 921.102,364.152C923.169,361.993 925.982,360.525 929.202,360.397Z"/>
            </g>
        </g>
    </g>
</svg>
