<?xml version="1.0" encoding="UTF-8" standalone="no"?>
<!DOCTYPE svg PUBLIC "-//W3C//DTD SVG 1.1//EN" "http://www.w3.org/Graphics/SVG/1.1/DTD/svg11.dtd">
<svg width="100%" height="100%" viewBox="0 0 619 618" version="1.1" xmlns="http://www.w3.org/2000/svg" xmlns:xlink="http://www.w3.org/1999/xlink" xml:space="preserve" xmlns:serif="http://www.serif.com/" style="fill-rule:evenodd;clip-rule:evenodd;stroke-linejoin:round;stroke-miterlimit:2;">
    <g transform="matrix(1,0,0,1,-1365,0)">
        <g id="sprite-2" transform="matrix(1,0,0,1,17.116,-183.179)">
            <rect x="1348.52" y="183.179" width="617.537" height="617.537" style="fill:none;"/>
            <g transform="matrix(1,0,0,1,1379.32,156.416)">
                <path d="M162.901,547.397L335.416,544.127L533.714,440.357L533.527,271.472L93.556,203.819L72.817,284.397L162.901,547.397Z"/>
                <path d="M161.322,548.377C161.557,549.619 162.208,550.445 162.933,550.42C162.958,550.42 335.47,546.948 335.47,546.948C335.907,546.94 336.337,546.83 336.725,546.627L534.902,442.627C535.748,442.185 536.278,441.308 536.277,440.354L535.902,271.47C535.901,270.298 535.046,269.303 533.888,269.125L93.847,201.923C92.873,201.773 91.943,202.386 91.698,203.341L71.037,283.938C70.948,284.286 70.962,284.652 71.079,284.992L161.322,547.938L161.322,548.377ZM163.627,544.359C154.713,518.284 78.902,296.513 74.735,284.323C74.735,284.323 94.979,205.981 94.979,205.981C94.979,205.981 499.089,268.544 531.152,273.508C531.152,273.508 531.151,438.803 531.151,438.803C531.151,438.803 334.701,541.317 334.701,541.317C334.701,541.317 163.627,544.359 163.627,544.359L163.627,544.359Z"/>
            </g>
            <g transform="matrix(4.15392,0,0,4.06496,5033.59,-2549.32)">
                <path d="M-793.715,687.48C-763.443,692.794 -744.907,732.783 -745.752,760.223C-746.961,799.494 -779.972,817.612 -823.81,807.162C-861.711,798.127 -888.52,774.531 -877.291,741.52C-867.856,713.783 -840.353,679.294 -793.715,687.48ZM-812.798,782.818C-806.119,783.908 -798.841,784.175 -800.19,789.444C-801.642,795.113 -806.534,794.208 -813.212,793.118C-819.891,792.028 -824.9,788.612 -824.391,785.495C-823.882,782.377 -819.476,781.729 -812.798,782.818ZM-771.101,743.402C-763.714,744.42 -758.453,748.829 -759.573,756.958C-760.693,765.086 -767.762,773.801 -775.16,772.858C-780.399,772.19 -787.717,763.038 -786.198,754.975C-784.291,744.849 -778.489,742.384 -771.101,743.402ZM-836.31,726.867C-829.553,730.022 -826.885,738.62 -830.356,746.055C-833.827,753.49 -842.131,756.965 -848.888,753.81C-855.646,750.656 -858.314,742.058 -854.843,734.623C-851.372,727.188 -843.068,723.713 -836.31,726.867Z" style="fill:white;"/>
                <path d="M-793.578,686.668C-814.978,682.743 -832.485,687.714 -846.085,697.001C-862.515,708.219 -873.212,725.714 -878.454,741.107C-883.461,755.858 -881.09,768.78 -873.626,779.442C-864.022,793.162 -845.864,803.133 -824.071,808.304C-803.451,813.189 -785.201,811.816 -771.439,805C-755.408,797.061 -745.396,781.766 -744.769,760.254C-744.366,746.311 -748.901,729.17 -757.41,714.892C-765.877,700.685 -778.269,689.324 -793.578,686.668L-793.578,686.668ZM-793.851,688.293C-779.023,690.925 -767.095,702.039 -758.941,715.841C-750.682,729.82 -746.29,746.573 -746.735,760.191C-747.404,780.805 -756.987,795.464 -772.373,803.024C-785.771,809.607 -803.517,810.826 -823.549,806.021C-844.696,800.956 -862.36,791.344 -871.662,778.008C-878.667,767.965 -880.856,755.804 -876.128,741.933C-871.046,726.977 -860.606,710.08 -844.731,699.054C-831.585,689.925 -814.699,684.797 -793.851,688.293L-793.851,688.293ZM-812.671,782.005C-815.174,781.45 -817.369,781.144 -819.19,781.174C-820.34,781.193 -821.345,781.358 -822.185,781.626C-824.175,782.26 -825.32,783.522 -825.614,785.286C-825.932,787.272 -824.653,789.486 -822.014,791.214C-819.875,792.615 -816.846,793.755 -813.396,794.294C-809.579,794.881 -806.317,795.38 -803.904,794.777C-801.618,794.207 -799.961,792.779 -799.21,789.706C-798.589,787.153 -799.52,785.53 -801.406,784.44C-803.901,782.999 -808.397,782.643 -812.671,782.005ZM-812.925,783.632C-809.589,784.223 -806.097,784.597 -803.657,785.511C-802.499,785.946 -801.593,786.474 -801.205,787.318C-800.973,787.824 -800.97,788.435 -801.171,789.181C-801.73,791.267 -802.828,792.266 -804.396,792.623C-806.605,793.125 -809.562,792.541 -813.029,791.942C-816.098,791.42 -818.79,790.385 -820.685,789.117C-821.636,788.481 -822.378,787.796 -822.817,787.077C-823.096,786.62 -823.244,786.16 -823.168,785.703C-822.984,784.533 -821.906,784.04 -820.346,783.729C-818.47,783.355 -815.957,783.301 -812.925,783.632ZM-770.994,742.585C-775.278,741.834 -779.111,742.253 -782.069,744.512C-784.584,746.432 -786.446,749.718 -787.412,754.736C-788.16,758.769 -786.91,763.06 -784.738,766.563C-782.188,770.676 -778.379,773.647 -775.303,774.024C-771.862,774.441 -768.477,773.012 -765.653,770.482C-761.97,767.183 -759.243,762.031 -758.601,757.098C-758.029,752.669 -759.209,749.277 -761.521,746.86C-763.761,744.518 -767.094,743.087 -770.994,742.585L-770.994,742.585ZM-771.209,744.219C-767.743,744.728 -764.771,746.003 -762.811,748.125C-760.896,750.199 -759.998,753.092 -760.544,756.818C-761.082,760.511 -762.925,764.316 -765.459,767.182C-768.103,770.172 -771.51,772.161 -775.018,771.691C-777.576,771.352 -780.601,768.695 -782.699,765.254C-784.521,762.265 -785.639,758.635 -784.985,755.214C-784.198,750.94 -782.678,748.152 -780.605,746.432C-778.145,744.392 -774.922,743.845 -771.209,744.218L-771.209,744.219ZM-835.975,726.118C-839.645,724.242 -843.836,724.208 -847.548,725.763C-851.077,727.24 -854.122,730.18 -855.957,734.08C-857.772,737.997 -858.015,742.208 -856.939,745.888C-855.793,749.809 -853.162,753.13 -849.366,754.879C-845.596,756.611 -841.395,756.47 -837.698,754.805C-834.244,753.249 -831.231,750.371 -829.456,746.493C-827.693,742.631 -827.473,738.49 -828.548,734.876C-829.685,731.051 -832.26,727.812 -835.975,726.118ZM-836.646,727.617C-833.42,729.158 -831.218,732.033 -830.279,735.397C-829.386,738.597 -829.644,742.241 -831.255,745.616C-832.857,748.981 -835.52,751.46 -838.556,752.777C-841.697,754.138 -845.244,754.243 -848.41,752.741C-851.554,751.255 -853.703,748.463 -854.632,745.194C-855.522,742.06 -855.29,738.486 -853.729,735.166C-852.182,731.826 -849.56,729.392 -846.596,728.011C-843.456,726.55 -839.906,726.235 -836.646,727.617Z"/>
            </g>
        </g>
    </g>
</svg>
