<?xml version="1.0" encoding="UTF-8" standalone="no"?>
<!DOCTYPE svg PUBLIC "-//W3C//DTD SVG 1.1//EN" "http://www.w3.org/Graphics/SVG/1.1/DTD/svg11.dtd">
<svg width="100%" height="100%" viewBox="0 0 618 618" version="1.1" xmlns="http://www.w3.org/2000/svg" xmlns:xlink="http://www.w3.org/1999/xlink" xml:space="preserve" xmlns:serif="http://www.serif.com/" style="fill-rule:evenodd;clip-rule:evenodd;stroke-linejoin:round;stroke-miterlimit:2;">
    <g transform="matrix(1,0,0,1,-2760,0)">
        <g id="sprite-4" transform="matrix(1,0,0,1,1411.82,-183.179)">
            <rect x="1348.52" y="183.179" width="617.537" height="617.537" style="fill:none;"/>
            <g transform="matrix(1,0,0,1,1354.02,119.022)">
                <path d="M115.132,532.096L503.995,565.998L554.338,292.346L522.592,207.633L93.556,203.819L72.817,284.397L115.132,532.096Z"/>
                <path d="M113.487,532.605C113.615,533.961 114.231,534.99 114.987,535.109L114.87,535.109L503.768,568.601C505.109,568.718 506.32,567.796 506.564,566.471L556.633,292.768C556.71,292.352 556.672,291.923 556.523,291.527L524.693,206.845C524.368,205.976 523.54,205.398 522.612,205.389L93.572,201.959C92.717,201.951 91.967,202.527 91.754,203.355L71.079,283.949C71.016,284.194 71.005,284.45 71.048,284.699L113.487,532.377L113.487,532.605ZM116.327,529.165L74.652,284.474C74.652,284.474 94.993,205.694 94.993,205.694C121.229,205.95 494.027,209.597 521.03,209.861C521.03,209.861 551.925,292.557 551.925,292.557C551.925,292.557 501.858,563.187 501.858,563.187C501.858,563.187 116.327,529.165 116.327,529.165L116.327,529.165Z"/>
            </g>
            <g transform="matrix(1.67184,0,0,1.67184,2058.89,-1143.85)">
                <path d="M-237.609,820.146C-143.727,820.146 -88.472,857.223 -76.067,948C-63.82,1037.63 -91.975,1135.5 -195.846,1136.72C-303.537,1137.98 -409.113,1086.6 -406.661,969.225C-404.771,878.785 -331.492,820.146 -237.609,820.146ZM-140.229,1077.98C-143.126,1072.96 -141.404,1066.54 -136.385,1063.64C-131.367,1060.74 -124.939,1062.46 -122.042,1067.48C-119.144,1072.5 -122.236,1076.41 -127.254,1079.31C-132.273,1082.2 -137.331,1083 -140.229,1077.98ZM-302.552,950.037C-278.499,957.58 -264.932,982.715 -272.275,1006.13C-279.618,1029.55 -305.107,1042.44 -329.16,1034.89C-353.213,1027.35 -366.78,1002.22 -359.437,978.8C-352.094,955.383 -326.605,942.495 -302.552,950.037ZM-149.691,892.372C-126.658,883.902 -101.081,895.726 -92.61,918.759C-84.14,941.792 -95.964,967.369 -118.997,975.839C-142.03,984.31 -156.103,968.591 -164.573,945.557C-173.044,922.524 -172.724,900.843 -149.691,892.372Z" style="fill:white;"/>
                <path d="M-237.609,818.142C-284.151,817.792 -325.857,831.679 -356.497,856.799C-388.729,883.223 -408.702,921.996 -409.733,969.161C-410.965,1029.93 -383.811,1073.34 -342.405,1101.17C-302.572,1127.94 -249.451,1140.22 -195.813,1139.54C-153.315,1138.98 -123.241,1122.59 -103.235,1097.3C-73.488,1059.71 -66.123,1002.19 -73.662,947.672C-80.181,900.611 -98.09,867.822 -126.67,846.979C-153.972,827.068 -191.103,818.057 -237.609,818.142ZM-237.609,822.15C-192.175,822.234 -155.889,831.005 -129.288,850.555C-101.687,870.84 -84.618,902.735 -78.473,948.329C-72.583,991.967 -76.325,1037.57 -93.965,1072.74C-111.922,1108.54 -144.406,1133.37 -195.879,1133.9C-248.294,1134.45 -300.198,1122.45 -339.079,1096.23C-378.821,1069.42 -404.845,1027.68 -403.589,969.289C-402.687,924.024 -383.451,886.968 -352.735,861.347C-323.137,836.658 -282.886,822.491 -237.609,822.15ZM-141.964,1078.98C-140.713,1082.01 -138.587,1083.48 -136.223,1084.22C-135.096,1084.57 -133.872,1084.63 -132.597,1084.51C-130.398,1084.3 -128.056,1083.29 -125.717,1081.97C-122.05,1079.8 -119.337,1077.09 -118.387,1074.05C-117.632,1071.63 -117.797,1068.94 -119.539,1066.04C-121.442,1062.9 -124.404,1060.77 -127.715,1059.97C-130.978,1059.17 -134.55,1059.58 -137.636,1061.47C-140.663,1063.34 -142.699,1066.22 -143.456,1069.43C-144.199,1072.58 -143.8,1076.02 -141.964,1078.98ZM-138.493,1076.98C-139.588,1074.94 -139.713,1072.65 -139.096,1070.6C-138.496,1068.61 -137.11,1066.87 -135.134,1065.81C-133.219,1064.77 -131.061,1064.65 -129.121,1065.22C-127.23,1065.77 -125.568,1067.07 -124.545,1068.93C-123.695,1070.45 -123.735,1071.79 -124.43,1072.95C-125.294,1074.39 -126.901,1075.58 -128.792,1076.64C-130.384,1077.58 -131.977,1078.24 -133.467,1078.53C-134.053,1078.64 -134.6,1078.8 -135.149,1078.75C-136.351,1078.65 -137.523,1078.25 -138.493,1076.98ZM-301.952,948.125C-314.412,943.839 -327.435,944.8 -338.317,950.009C-349.539,955.381 -358.374,965.27 -362.365,977.882C-366.295,990.516 -364.564,1003.61 -358.549,1014.5C-352.669,1025.15 -342.706,1033.69 -330.016,1037.62C-317.36,1041.52 -304.352,1040.12 -293.524,1034.66C-282.518,1029.12 -273.757,1019.4 -269.91,1006.87C-266.09,994.402 -267.846,981.504 -273.816,970.788C-279.64,960.335 -289.456,951.951 -301.952,948.125ZM-303.151,951.949C-291.801,955.593 -282.935,963.34 -277.751,972.945C-272.52,982.64 -271.061,994.237 -274.64,1005.39C-278.191,1016.49 -286.08,1025.03 -295.917,1029.85C-305.572,1034.59 -317.115,1035.74 -328.305,1032.17C-339.46,1028.62 -348.183,1021.04 -353.308,1011.63C-358.491,1002.11 -359.982,990.707 -356.509,979.719C-353.089,968.712 -345.298,960.312 -335.666,955.339C-326.041,950.371 -314.532,948.721 -303.151,951.949ZM-150.382,890.492C-160.806,893.961 -167.018,900.114 -170.192,907.807C-171.7,911.46 -172.502,915.487 -172.665,919.772C-172.98,928.001 -170.899,937.205 -167.459,946.618C-162.149,960.951 -154.646,972.496 -144.525,977.815C-137.169,981.68 -128.411,982.426 -117.999,978.552C-105.779,973.989 -96.54,964.912 -91.523,953.9C-86.528,942.934 -85.703,930.061 -90.262,917.895C-94.809,905.793 -103.821,896.657 -114.742,891.703C-125.606,886.775 -138.346,885.966 -150.382,890.492L-150.382,890.492ZM-148.999,894.253C-138.005,890.3 -126.441,891.183 -116.637,895.801C-106.889,900.391 -98.891,908.694 -94.959,919.623C-91.039,930.488 -91.906,941.919 -96.456,951.62C-100.985,961.276 -109.184,969.212 -119.994,973.127C-130.854,977.074 -139.493,975.158 -146.34,969.383C-152.922,963.831 -157.876,954.931 -161.688,944.496C-164.874,935.885 -166.74,927.478 -166.624,919.933C-166.569,916.33 -166.095,912.929 -164.989,909.796C-162.642,903.145 -157.634,897.737 -148.999,894.253L-148.999,894.253Z"/>
            </g>
        </g>
    </g>
</svg>
