<?xml version="1.0" encoding="UTF-8" standalone="no"?>
<!DOCTYPE svg PUBLIC "-//W3C//DTD SVG 1.1//EN" "http://www.w3.org/Graphics/SVG/1.1/DTD/svg11.dtd">
<svg width="100%" height="100%" viewBox="0 0 618 618" version="1.1" xmlns="http://www.w3.org/2000/svg" xmlns:xlink="http://www.w3.org/1999/xlink" xml:space="preserve" xmlns:serif="http://www.serif.com/" style="fill-rule:evenodd;clip-rule:evenodd;stroke-linejoin:round;stroke-miterlimit:2;">
    <g transform="matrix(1,0,0,1,-656,0)">
        <g id="sprite-1" transform="matrix(1,0,0,1,-692.519,-183.179)">
            <rect x="1348.52" y="183.179" width="617.537" height="617.537" style="fill:none;"/>
            <g transform="matrix(1,0,0,1,1348.52,183.179)">
                <path d="M162.901,547.397L335.416,544.127L533.714,440.357L533.527,271.472L93.556,203.819L72.817,284.397L162.901,547.397Z"/>
                <path d="M161.322,548.377C161.557,549.619 162.208,550.445 162.933,550.42C162.958,550.42 335.47,546.948 335.47,546.948C335.907,546.94 336.337,546.83 336.725,546.627L534.902,442.627C535.748,442.185 536.278,441.308 536.277,440.354L535.902,271.47C535.901,270.298 535.046,269.303 533.888,269.125L93.847,201.923C92.873,201.773 91.943,202.386 91.698,203.341L71.037,283.938C70.948,284.286 70.962,284.652 71.079,284.992L161.322,547.938L161.322,548.377ZM163.627,544.359L74.735,284.323C74.735,284.323 94.979,205.981 94.979,205.981C94.979,205.981 531.152,273.508 531.152,273.508C531.152,273.508 531.151,421.929 531.151,438.803C531.151,438.803 334.701,541.317 334.701,541.317C334.701,541.317 163.627,544.359 163.627,544.359L163.627,544.359Z"/>
            </g>
            <g transform="matrix(3.59687,0,0,3.59687,-1952.58,-3852.94)">
                <path d="M1042.83,1134.68C1066.62,1144.08 1084.35,1212.99 1080.02,1228.14C1070.95,1259.84 996.653,1302.75 958.516,1277.67C940.338,1265.72 922.065,1225.31 927.543,1195.78C932.673,1168.12 995.43,1115.97 1042.83,1134.68ZM975.602,1240.76C983.762,1238.49 989.239,1244.38 990.938,1252.13C992.636,1259.89 988.314,1266.64 981.757,1268.87C973.122,1271.81 968.119,1265.26 966.421,1257.5C964.723,1249.74 968.93,1242.62 975.602,1240.76ZM1047.28,1211.13C1057.39,1211.13 1065.59,1219.33 1065.59,1229.44C1065.59,1239.55 1057.39,1247.75 1047.28,1247.75C1037.17,1247.75 1028.97,1239.55 1028.97,1229.44C1028.97,1219.33 1037.17,1211.13 1047.28,1211.13ZM954.781,1185.38C958.523,1186.73 960.059,1191.99 958.21,1197.13C956.362,1202.27 951.823,1205.35 948.081,1204.01C944.34,1202.66 942.803,1197.4 944.652,1192.26C946.501,1187.12 951.04,1184.04 954.781,1185.38Z" style="fill:white;"/>
                <path d="M1043.17,1133.82C1027.51,1127.49 1010.11,1128.78 993.618,1134.44C986.855,1136.76 980.246,1139.83 973.977,1143.39C960.76,1150.91 949.053,1160.66 940.502,1170.39C932.663,1179.31 927.494,1188.25 926.15,1195.52C923.542,1209.63 926.242,1226.19 931.791,1241.04C938.058,1257.8 947.962,1272.35 957.781,1278.79C976.579,1291.11 1003.98,1287.38 1028.29,1276.43C1054.12,1264.79 1076.38,1245.04 1081.1,1228.44C1083.71,1219.26 1078.37,1190.51 1068.4,1166.94C1061.7,1151.1 1052.88,1137.63 1043.17,1133.82ZM1042.49,1135.55C1051.84,1139.26 1060.13,1152.41 1066.54,1167.72C1076.2,1190.79 1081.52,1218.86 1078.94,1227.83C1074.3,1243.95 1052.43,1262.91 1027.27,1274.16C1003.79,1284.66 977.355,1288.49 959.25,1276.56C949.804,1270.33 940.391,1256.23 934.382,1240.07C929.04,1225.7 926.394,1209.68 928.937,1196.03C930.217,1189.15 935.218,1180.73 942.648,1172.28C951.014,1162.76 962.484,1153.26 975.381,1145.85C981.488,1142.33 987.914,1139.29 994.493,1136.94C1010.41,1131.26 1027.22,1129.66 1042.49,1135.55ZM975.352,1239.86C971.535,1240.76 968.353,1243.23 966.468,1246.62C964.716,1249.77 964.153,1253.72 965.027,1257.81C965.95,1261.95 967.78,1265.77 970.497,1268.17C973.392,1270.74 977.27,1271.83 982.184,1270.13C985.866,1268.85 988.897,1266.26 990.696,1262.89C992.371,1259.76 992.992,1255.94 992.065,1251.89C991.132,1247.82 989.212,1244.26 986.481,1241.98C983.607,1239.59 979.847,1238.56 975.352,1239.86ZM975.852,1241.66C979.632,1240.65 982.766,1241.52 985.127,1243.57C987.482,1245.62 989.064,1248.8 989.81,1252.38C990.534,1255.84 989.967,1259.06 988.502,1261.7C986.959,1264.48 984.409,1266.59 981.329,1267.62C977.539,1268.88 974.557,1268.1 972.351,1266.11C970.053,1264.03 968.578,1260.74 967.815,1257.19C967.058,1253.81 967.579,1250.58 968.908,1247.9C970.349,1244.99 972.733,1242.67 975.852,1241.66ZM1047.28,1210.2C1041.91,1210.03 1036.94,1212.05 1033.36,1215.52C1029.73,1219.02 1027.56,1224 1027.54,1229.44C1027.56,1234.88 1029.77,1239.81 1033.35,1243.37C1036.92,1246.92 1041.85,1249.11 1047.28,1249.08C1052.69,1249.05 1057.59,1246.84 1061.11,1243.27C1064.62,1239.72 1066.78,1234.83 1066.75,1229.44C1066.7,1224.08 1064.51,1219.24 1060.96,1215.76C1057.44,1212.29 1052.61,1210.15 1047.28,1210.2ZM1047.28,1212.06C1052.06,1212.1 1056.38,1214.07 1059.49,1217.23C1062.58,1220.37 1064.48,1224.69 1064.44,1229.44C1064.41,1234.16 1062.46,1238.43 1059.35,1241.5C1056.24,1244.57 1051.98,1246.45 1047.28,1246.42C1042.6,1246.41 1038.38,1244.49 1035.32,1241.4C1032.27,1238.34 1030.38,1234.11 1030.39,1229.44C1030.38,1224.78 1032.31,1220.59 1035.31,1217.47C1038.37,1214.31 1042.54,1212.21 1047.28,1212.06ZM955.097,1184.51C952.744,1183.48 949.977,1183.97 947.611,1185.69C945.77,1187.04 944.256,1189.2 943.31,1191.77C942.184,1194.96 942.231,1198.19 943.197,1200.69C944.046,1202.89 945.586,1204.54 947.632,1205.26C949.665,1205.96 951.888,1205.65 953.905,1204.46C956.18,1203.12 958.21,1200.67 959.294,1197.52C960.361,1194.4 960.294,1191.26 959.331,1188.83C958.506,1186.75 957.046,1185.17 955.097,1184.51ZM954.466,1186.26C956.211,1186.92 957.321,1188.62 957.737,1190.7C958.101,1192.53 957.918,1194.65 957.127,1196.74C956.347,1198.82 955.083,1200.51 953.623,1201.63C952.027,1202.85 950.183,1203.37 948.531,1202.76C946.896,1202.15 945.871,1200.56 945.464,1198.61C945.094,1196.85 945.248,1194.78 945.994,1192.74C946.6,1191.04 947.552,1189.61 948.64,1188.51C949.15,1187.99 949.675,1187.53 950.236,1187.17C951.584,1186.29 953.046,1185.86 954.466,1186.26Z"/>
            </g>
        </g>
    </g>
</svg>
